<svg xmlns="http://www.w3.org/2000/svg" xmlns:xlink="http://www.w3.org/1999/xlink" width="1024" zoomAndPan="magnify" viewBox="0 0 768 767.999994" height="1024" preserveAspectRatio="xMidYMid meet" version="1.0"><defs><clipPath id="0835d47635"><path d="M 231.6875 202.867188 L 515.21875 202.867188 L 515.21875 486.398438 L 231.6875 486.398438 Z M 231.6875 202.867188 " clip-rule="nonzero"/></clipPath><clipPath id="da065eb899"><path d="M 373.453125 202.867188 C 295.160156 202.867188 231.6875 266.339844 231.6875 344.632812 C 231.6875 422.929688 295.160156 486.398438 373.453125 486.398438 C 451.75 486.398438 515.21875 422.929688 515.21875 344.632812 C 515.21875 266.339844 451.75 202.867188 373.453125 202.867188 " clip-rule="nonzero"/></clipPath><clipPath id="aed390ad2f"><path d="M 304 426 L 332 426 L 332 447.597656 L 304 447.597656 Z M 304 426 " clip-rule="nonzero"/></clipPath><clipPath id="25493aaa68"><path d="M 415 426 L 443 426 L 443 447.597656 L 415 447.597656 Z M 415 426 " clip-rule="nonzero"/></clipPath><clipPath id="ea7afe59d8"><path d="M 284 241.347656 L 463 241.347656 L 463 420 L 284 420 Z M 284 241.347656 " clip-rule="nonzero"/></clipPath><clipPath id="c0a4b7d001"><path d="M 263.28125 293 L 279 293 L 279 343 L 263.28125 343 Z M 263.28125 293 " clip-rule="nonzero"/></clipPath><clipPath id="2a7d3ffef3"><path d="M 468 293 L 483.78125 293 L 483.78125 343 L 468 343 Z M 468 293 " clip-rule="nonzero"/></clipPath></defs><rect x="-76.8" width="921.6" fill="#ffffff" y="-76.799999" height="921.599993" fill-opacity="1"/><rect x="-76.8" width="921.6" fill="#ffffff" y="-76.799999" height="921.599993" fill-opacity="1"/><rect x="-76.8" width="921.6" fill="#ffffff" y="-76.799999" height="921.599993" fill-opacity="1"/><g clip-path="url(#0835d47635)"><g clip-path="url(#da065eb899)"><path fill="#ffde59" d="M 231.6875 202.867188 L 515.21875 202.867188 L 515.21875 486.398438 L 231.6875 486.398438 Z M 231.6875 202.867188 " fill-opacity="1" fill-rule="nonzero"/></g></g><g clip-path="url(#aed390ad2f)"><path fill="#ff6a0e" d="M 304.28125 426.234375 L 304.28125 438.121094 C 304.28125 443.167969 308.382812 447.261719 313.441406 447.261719 L 322.605469 447.261719 C 327.667969 447.261719 331.769531 443.167969 331.769531 438.121094 L 331.769531 426.234375 Z M 304.28125 426.234375 " fill-opacity="1" fill-rule="nonzero"/></g><g clip-path="url(#25493aaa68)"><path fill="#ff6a0e" d="M 415.378906 426.234375 L 415.378906 438.121094 C 415.378906 443.167969 419.480469 447.261719 424.542969 447.261719 L 433.703125 447.261719 C 438.765625 447.261719 442.867188 443.167969 442.867188 438.121094 L 442.867188 426.234375 Z M 415.378906 426.234375 " fill-opacity="1" fill-rule="nonzero"/></g><g clip-path="url(#ea7afe59d8)"><path fill="#ff6a0e" d="M 430.429688 241.59375 L 316.71875 241.59375 C 298.777344 241.59375 284.238281 256.101562 284.238281 274.003906 L 284.238281 407.675781 C 284.238281 414.21875 289.5625 419.53125 296.121094 419.53125 L 451.027344 419.53125 C 457.585938 419.53125 462.910156 414.21875 462.910156 407.675781 L 462.910156 274.003906 C 462.910156 256.101562 448.367188 241.59375 430.429688 241.59375 Z M 313.253906 397.285156 C 306.335938 397.285156 300.730469 391.691406 300.730469 384.792969 C 300.730469 377.890625 306.335938 372.296875 313.253906 372.296875 C 320.167969 372.296875 325.773438 377.890625 325.773438 384.792969 C 325.773438 391.691406 320.167969 397.285156 313.253906 397.285156 Z M 412.460938 396.722656 L 339.15625 396.722656 C 336.769531 396.722656 334.835938 394.792969 334.835938 392.410156 C 334.835938 390.027344 336.769531 388.097656 339.15625 388.097656 L 412.460938 388.097656 C 414.847656 388.097656 416.78125 390.027344 416.78125 392.410156 C 416.78125 394.792969 414.847656 396.722656 412.460938 396.722656 Z M 412.460938 381.488281 L 339.15625 381.488281 C 336.769531 381.488281 334.835938 379.554688 334.835938 377.175781 C 334.835938 374.792969 336.769531 372.863281 339.15625 372.863281 L 412.460938 372.863281 C 414.847656 372.863281 416.78125 374.792969 416.78125 377.175781 C 416.78125 379.554688 414.847656 381.488281 412.460938 381.488281 Z M 433.894531 397.285156 C 426.980469 397.285156 421.375 391.691406 421.375 384.792969 C 421.375 377.890625 426.980469 372.296875 433.894531 372.296875 C 440.8125 372.296875 446.417969 377.890625 446.417969 384.792969 C 446.417969 391.691406 440.8125 397.285156 433.894531 397.285156 Z M 446.417969 327.128906 C 446.417969 339.28125 436.542969 349.132812 424.363281 349.132812 L 322.785156 349.132812 C 310.605469 349.132812 300.730469 339.28125 300.730469 327.128906 L 300.730469 279.121094 C 300.730469 266.96875 310.605469 257.117188 322.785156 257.117188 L 424.363281 257.117188 C 436.542969 257.117188 446.417969 266.96875 446.417969 279.121094 Z M 446.417969 327.128906 " fill-opacity="1" fill-rule="nonzero"/></g><path fill="#ff6a0e" d="M 392.941406 342.433594 C 393.1875 335.667969 398.746094 330.253906 405.589844 330.253906 C 412.429688 330.253906 417.988281 335.667969 418.234375 342.433594 L 427.414062 342.433594 C 427.167969 330.613281 417.496094 321.105469 405.589844 321.105469 C 393.679688 321.105469 384.007812 330.613281 383.761719 342.433594 Z M 392.941406 342.433594 " fill-opacity="1" fill-rule="nonzero"/><g clip-path="url(#c0a4b7d001)"><path fill="#ff6a0e" d="M 278.28125 334.96875 C 278.28125 339.09375 274.929688 342.433594 270.796875 342.433594 C 266.667969 342.433594 263.316406 339.09375 263.316406 334.96875 L 263.316406 301.144531 C 263.316406 297.019531 266.667969 293.679688 270.796875 293.679688 C 274.929688 293.679688 278.28125 297.019531 278.28125 301.144531 Z M 278.28125 334.96875 " fill-opacity="1" fill-rule="nonzero"/></g><g clip-path="url(#2a7d3ffef3)"><path fill="#ff6a0e" d="M 483.832031 334.96875 C 483.832031 339.09375 480.480469 342.433594 476.347656 342.433594 C 472.214844 342.433594 468.867188 339.09375 468.867188 334.96875 L 468.867188 301.144531 C 468.867188 297.019531 472.214844 293.679688 476.347656 293.679688 C 480.480469 293.679688 483.832031 297.019531 483.832031 301.144531 Z M 483.832031 334.96875 " fill-opacity="1" fill-rule="nonzero"/></g></svg>